<?xml version="1.0" standalone="no"?>
<!DOCTYPE svg PUBLIC "-//W3C//DTD SVG 20010904//EN"
 "http://www.w3.org/TR/2001/REC-SVG-20010904/DTD/svg10.dtd">
<svg version="1.0" xmlns="http://www.w3.org/2000/svg"
 width="170.000000pt" height="170.000000pt" viewBox="0 0 170.000000 170.000000"
 preserveAspectRatio="xMidYMid meet">
<metadata>
Created by potrace 1.11, written by Peter Selinger 2001-2013
</metadata>
<g transform="translate(0.000000,170.000000) scale(0.100000,-0.100000)"
fill="#000000" stroke="none">
<path d="M748 1665 c-2 -1 -37 -5 -78 -8 -278 -22 -451 -121 -548 -314 -23
-46 -39 -83 -37 -83 3 0 0 -12 -6 -27 -37 -98 -55 -371 -37 -568 23 -242 122
-432 272 -520 131 -77 290 -109 531 -109 324 1 498 51 637 184 66 63 136 204
154 306 2 16 7 35 9 43 25 68 24 533 -1 572 -2 3 -6 20 -9 37 -29 167 -148
332 -286 399 -82 39 -154 59 -288 78 -46 7 -307 15 -313 10z"/>
</g>
</svg>
